<?xml version="1.0" standalone="no"?>
<!DOCTYPE svg PUBLIC "-//W3C//DTD SVG 20010904//EN"
 "http://www.w3.org/TR/2001/REC-SVG-20010904/DTD/svg10.dtd">
<svg version="1.0" xmlns="http://www.w3.org/2000/svg"
 width="225.000000pt" height="225.000000pt" viewBox="0 0 225.000000 225.000000"
 preserveAspectRatio="xMidYMid meet">

<g transform="translate(0.000000,225.000000) scale(0.100000,-0.100000)"
fill="#000000" stroke="none">
<path d="M425 1370 c22 -22 64 -50 95 -63 55 -22 58 -22 605 -22 547 0 550 0
605 22 31 13 73 41 95 63 l39 40 -739 0 -739 0 39 -40z"/>
<path d="M489 1203 c38 -72 150 -113 308 -113 l73 0 0 -172 0 -173 122 -69
c67 -38 126 -69 133 -69 6 0 66 31 133 68 l122 69 0 173 0 173 68 0 c162 0
274 40 313 113 9 16 -6 17 -251 17 l-260 0 0 -199 c0 -195 -1 -200 -22 -215
-47 -33 -48 -30 -45 197 l2 212 -60 0 -60 0 -5 -217 -5 -217 -25 12 -25 13 -3
207 -2 207 -261 0 c-244 0 -259 -1 -250 -17z"/>
<path d="M641 1021 l-34 -6 38 -34 c41 -36 108 -70 138 -71 14 0 17 9 17 54 0
47 -3 54 -22 60 -27 7 -90 6 -137 -3z"/>
<path d="M1450 968 c0 -49 3 -58 18 -58 29 0 115 47 146 79 l28 30 -96 3 -96
3 0 -57z"/>
</g>
</svg>
